<?xml version="1.0" encoding="UTF-8"?>
<svg xmlns="http://www.w3.org/2000/svg" xmlns:xlink="http://www.w3.org/1999/xlink" width="14pt" height="14pt" viewBox="0 0 14 14" version="1.1">
<g id="surface1">
<path style=" stroke:none;fill-rule:nonzero;fill:rgb(100%,78.039216%,0%);fill-opacity:1;" d="M 1.75 2.042969 C 1.75 2.203125 1.621094 2.332031 1.457031 2.332031 C 1.296875 2.332031 1.167969 2.203125 1.167969 2.042969 C 1.167969 1.878906 1.296875 1.75 1.457031 1.75 C 1.621094 1.75 1.75 1.878906 1.75 2.042969 Z M 1.75 2.042969 "/>
<path style=" stroke:none;fill-rule:nonzero;fill:rgb(100%,78.039216%,0%);fill-opacity:1;" d="M 2.917969 2.042969 C 2.917969 2.203125 2.785156 2.332031 2.625 2.332031 C 2.464844 2.332031 2.332031 2.203125 2.332031 2.042969 C 2.332031 1.878906 2.464844 1.75 2.625 1.75 C 2.785156 1.75 2.917969 1.878906 2.917969 2.042969 Z M 2.917969 2.042969 "/>
<path style=" stroke:none;fill-rule:nonzero;fill:rgb(100%,78.039216%,0%);fill-opacity:1;" d="M 4.082031 2.042969 C 4.082031 2.203125 3.953125 2.332031 3.792969 2.332031 C 3.628906 2.332031 3.5 2.203125 3.5 2.042969 C 3.5 1.878906 3.628906 1.75 3.792969 1.75 C 3.953125 1.75 4.082031 1.878906 4.082031 2.042969 Z M 4.082031 2.042969 "/>
<path style=" stroke:none;fill-rule:nonzero;fill:rgb(100%,78.039216%,0%);fill-opacity:1;" d="M 3.207031 6.417969 L 9.625 6.417969 C 9.785156 6.417969 9.917969 6.285156 9.917969 6.125 C 9.917969 5.964844 9.785156 5.832031 9.625 5.832031 L 3.207031 5.832031 C 3.046875 5.832031 2.917969 5.964844 2.917969 6.125 C 2.917969 6.285156 3.046875 6.417969 3.207031 6.417969 Z M 3.207031 6.417969 "/>
<path style=" stroke:none;fill-rule:nonzero;fill:rgb(100%,78.039216%,0%);fill-opacity:1;" d="M 6.707031 9.332031 L 3.207031 9.332031 C 3.046875 9.332031 2.917969 9.464844 2.917969 9.625 C 2.917969 9.785156 3.046875 9.917969 3.207031 9.917969 L 6.707031 9.917969 C 6.871094 9.917969 7 9.785156 7 9.625 C 7 9.464844 6.871094 9.332031 6.707031 9.332031 Z M 6.707031 9.332031 "/>
<path style=" stroke:none;fill-rule:nonzero;fill:rgb(100%,78.039216%,0%);fill-opacity:1;" d="M 12.882812 4.082031 C 12.867188 4.082031 12.851562 4.085938 12.832031 4.089844 L 12.832031 1.75 C 12.832031 1.105469 12.308594 0.582031 11.667969 0.582031 L 1.167969 0.582031 C 0.523438 0.582031 0 1.105469 0 1.75 L 0 12.25 C 0 12.894531 0.523438 13.417969 1.167969 13.417969 L 11.667969 13.417969 C 12.308594 13.417969 12.832031 12.894531 12.832031 12.25 L 12.832031 6.828125 L 13.671875 5.988281 C 13.882812 5.78125 14 5.492188 14 5.199219 C 14 4.585938 13.5 4.082031 12.882812 4.082031 Z M 0.582031 1.75 C 0.582031 1.429688 0.84375 1.167969 1.167969 1.167969 L 11.667969 1.167969 C 11.988281 1.167969 12.25 1.429688 12.25 1.75 L 12.25 2.917969 L 0.582031 2.917969 Z M 12.25 12.25 C 12.25 12.570312 11.988281 12.832031 11.667969 12.832031 L 1.167969 12.832031 C 0.84375 12.832031 0.582031 12.570312 0.582031 12.25 L 0.582031 3.5 L 12.25 3.5 L 12.25 4.28125 C 12.195312 4.320312 12.140625 4.363281 12.09375 4.410156 L 8.921875 7.582031 L 3.207031 7.582031 C 3.046875 7.582031 2.917969 7.714844 2.917969 7.875 C 2.917969 8.035156 3.046875 8.167969 3.207031 8.167969 L 8.453125 8.167969 L 8.171875 9.566406 C 8.152344 9.664062 8.183594 9.761719 8.253906 9.832031 C 8.308594 9.886719 8.382812 9.917969 8.457031 9.917969 C 8.476562 9.917969 8.496094 9.914062 8.515625 9.910156 L 9.972656 9.621094 C 10.03125 9.609375 10.082031 9.582031 10.121094 9.539062 L 12.25 7.414062 Z M 9.773438 9.066406 L 8.832031 9.253906 L 9.019531 8.308594 L 11.667969 5.664062 L 12.421875 6.417969 Z M 13.261719 5.578125 L 12.832031 6.003906 L 12.078125 5.25 L 12.507812 4.824219 C 12.605469 4.722656 12.742188 4.667969 12.882812 4.667969 C 13.175781 4.667969 13.417969 4.90625 13.417969 5.199219 C 13.417969 5.339844 13.359375 5.476562 13.261719 5.578125 Z M 13.261719 5.578125 "/>
</g>
</svg>
