<?xml version="1.0" encoding="UTF-8"?>
<svg xmlns="http://www.w3.org/2000/svg" xmlns:xlink="http://www.w3.org/1999/xlink" width="13pt" height="13pt" viewBox="0 0 13 13" version="1.1">
<g id="surface1">
<path style=" stroke:none;fill-rule:nonzero;fill:rgb(37.647059%,38.431373%,43.137255%);fill-opacity:1;" d="M 12.839844 12.074219 L 9.144531 8.378906 C 9.859375 7.492188 10.292969 6.371094 10.292969 5.144531 C 10.292969 2.308594 7.984375 0 5.144531 0 C 2.308594 0 0 2.308594 0 5.144531 C 0 7.984375 2.308594 10.292969 5.144531 10.292969 C 6.371094 10.292969 7.492188 9.859375 8.378906 9.144531 L 12.074219 12.839844 C 12.179688 12.945312 12.320312 13 12.457031 13 C 12.597656 13 12.734375 12.945312 12.839844 12.839844 C 13.054688 12.628906 13.054688 12.289062 12.839844 12.074219 Z M 5.144531 9.207031 C 2.90625 9.207031 1.082031 7.386719 1.082031 5.144531 C 1.082031 2.90625 2.90625 1.082031 5.144531 1.082031 C 7.386719 1.082031 9.207031 2.90625 9.207031 5.144531 C 9.207031 7.386719 7.386719 9.207031 5.144531 9.207031 Z M 5.144531 9.207031 "/>
</g>
</svg>
