<?xml version="1.0" encoding="UTF-8"?>
<svg xmlns="http://www.w3.org/2000/svg" xmlns:xlink="http://www.w3.org/1999/xlink" width="13pt" height="13pt" viewBox="0 0 13 13" version="1.1">
<g id="surface1">
<path style=" stroke:none;fill-rule:nonzero;fill:rgb(37.647059%,38.431373%,43.137255%);fill-opacity:1;" d="M 7.695312 7.585938 L 5.304688 7.585938 C 5.105469 7.585938 4.945312 7.75 4.945312 7.949219 L 4.945312 12.636719 C 4.945312 12.839844 5.105469 13 5.304688 13 L 7.695312 13 C 7.894531 13 8.058594 12.839844 8.058594 12.636719 L 8.058594 7.949219 C 8.058594 7.75 7.894531 7.585938 7.695312 7.585938 Z M 7.332031 12.277344 L 5.667969 12.277344 L 5.667969 8.3125 L 7.332031 8.3125 Z M 7.332031 12.277344 "/>
<path style=" stroke:none;fill-rule:nonzero;fill:rgb(37.647059%,38.431373%,43.137255%);fill-opacity:1;" d="M 12.4375 4.746094 L 10.03125 4.746094 C 9.832031 4.746094 9.667969 4.90625 9.667969 5.105469 L 9.667969 12.636719 C 9.667969 12.839844 9.832031 13 10.03125 13 L 12.4375 13 C 12.640625 13 12.800781 12.839844 12.800781 12.636719 L 12.800781 5.105469 C 12.800781 4.90625 12.640625 4.746094 12.4375 4.746094 Z M 12.078125 12.277344 L 10.394531 12.277344 L 10.394531 5.46875 L 12.078125 5.46875 Z M 12.078125 12.277344 "/>
<path style=" stroke:none;fill-rule:nonzero;fill:rgb(37.647059%,38.431373%,43.137255%);fill-opacity:1;" d="M 2.96875 9.34375 L 0.5625 9.34375 C 0.363281 9.34375 0.199219 9.503906 0.199219 9.703125 L 0.199219 12.636719 C 0.199219 12.839844 0.363281 13 0.5625 13 L 2.96875 13 C 3.171875 13 3.332031 12.839844 3.332031 12.636719 L 3.332031 9.703125 C 3.332031 9.503906 3.171875 9.34375 2.96875 9.34375 Z M 2.609375 12.277344 L 0.925781 12.277344 L 0.925781 10.066406 L 2.609375 10.066406 Z M 2.609375 12.277344 "/>
<path style=" stroke:none;fill-rule:nonzero;fill:rgb(37.647059%,38.431373%,43.137255%);fill-opacity:1;" d="M 12.835938 0.363281 C 12.78125 0.289062 12.695312 0.242188 12.601562 0.238281 L 9.308594 0 C 9.105469 -0.015625 8.933594 0.136719 8.917969 0.335938 C 8.902344 0.535156 9.050781 0.710938 9.253906 0.726562 L 11.585938 0.882812 L 7.296875 4.238281 L 4.019531 1.667969 C 3.878906 1.554688 3.679688 1.5625 3.550781 1.683594 L 0.183594 4.90625 C 0.0390625 5.042969 0.03125 5.269531 0.164062 5.414062 C 0.230469 5.5 0.328125 5.546875 0.4375 5.539062 C 0.53125 5.539062 0.621094 5.5 0.6875 5.433594 L 3.820312 2.425781 L 7.0625 4.980469 C 7.195312 5.085938 7.382812 5.085938 7.515625 4.980469 L 12.148438 1.375 L 11.96875 3.621094 C 11.96875 3.820312 12.117188 3.984375 12.3125 4.003906 L 12.332031 4.003906 C 12.515625 4.003906 12.671875 3.863281 12.691406 3.675781 L 12.929688 0.617188 C 12.941406 0.523438 12.90625 0.425781 12.835938 0.363281 Z M 12.835938 0.363281 "/>
</g>
</svg>
