<?xml version="1.0" encoding="UTF-8"?>
<svg xmlns="http://www.w3.org/2000/svg" xmlns:xlink="http://www.w3.org/1999/xlink" width="13pt" height="13pt" viewBox="0 0 13 13" version="1.1">
<g id="surface1">
<path style=" stroke:none;fill-rule:nonzero;fill:rgb(33.333333%,34.117647%,38.039216%);fill-opacity:1;" d="M 9.953125 12.59375 L 3.046875 12.59375 C 2.261719 12.59375 1.625 11.957031 1.625 11.171875 L 1.625 1.828125 C 1.625 1.042969 2.261719 0.40625 3.046875 0.40625 L 9.953125 0.40625 C 10.738281 0.40625 11.375 1.042969 11.375 1.828125 L 11.375 11.171875 C 11.375 11.957031 10.738281 12.59375 9.953125 12.59375 Z M 3.046875 0.8125 C 2.484375 0.8125 2.03125 1.265625 2.03125 1.828125 L 2.03125 11.171875 C 2.03125 11.734375 2.484375 12.1875 3.046875 12.1875 L 9.953125 12.1875 C 10.515625 12.1875 10.96875 11.734375 10.96875 11.171875 L 10.96875 1.828125 C 10.96875 1.265625 10.515625 0.8125 9.953125 0.8125 Z M 3.046875 0.8125 "/>
<path style=" stroke:none;fill-rule:nonzero;fill:rgb(33.333333%,34.117647%,38.039216%);fill-opacity:1;" d="M 7.109375 11.78125 L 5.890625 11.78125 C 5.554688 11.78125 5.28125 11.507812 5.28125 11.171875 L 5.28125 10.359375 C 5.28125 10.023438 5.554688 9.75 5.890625 9.75 L 7.109375 9.75 C 7.445312 9.75 7.71875 10.023438 7.71875 10.359375 L 7.71875 11.171875 C 7.71875 11.507812 7.445312 11.78125 7.109375 11.78125 Z M 5.890625 10.15625 C 5.777344 10.15625 5.6875 10.246094 5.6875 10.359375 L 5.6875 11.171875 C 5.6875 11.285156 5.777344 11.375 5.890625 11.375 L 7.109375 11.375 C 7.222656 11.375 7.3125 11.285156 7.3125 11.171875 L 7.3125 10.359375 C 7.3125 10.246094 7.222656 10.15625 7.109375 10.15625 Z M 5.890625 10.15625 "/>
<path style=" stroke:none;fill-rule:nonzero;fill:rgb(33.333333%,34.117647%,38.039216%);fill-opacity:1;" d="M 4.265625 11.78125 L 3.046875 11.78125 C 2.710938 11.78125 2.4375 11.507812 2.4375 11.171875 L 2.4375 10.359375 C 2.4375 10.023438 2.710938 9.75 3.046875 9.75 L 4.265625 9.75 C 4.601562 9.75 4.875 10.023438 4.875 10.359375 L 4.875 11.171875 C 4.875 11.507812 4.601562 11.78125 4.265625 11.78125 Z M 3.046875 10.15625 C 2.933594 10.15625 2.84375 10.246094 2.84375 10.359375 L 2.84375 11.171875 C 2.84375 11.285156 2.933594 11.375 3.046875 11.375 L 4.265625 11.375 C 4.378906 11.375 4.46875 11.285156 4.46875 11.171875 L 4.46875 10.359375 C 4.46875 10.246094 4.378906 10.15625 4.265625 10.15625 Z M 3.046875 10.15625 "/>
<path style=" stroke:none;fill-rule:nonzero;fill:rgb(33.333333%,34.117647%,38.039216%);fill-opacity:1;" d="M 9.953125 11.78125 L 8.734375 11.78125 C 8.398438 11.78125 8.125 11.507812 8.125 11.171875 L 8.125 7.921875 C 8.125 7.585938 8.398438 7.3125 8.734375 7.3125 L 9.953125 7.3125 C 10.289062 7.3125 10.5625 7.585938 10.5625 7.921875 L 10.5625 11.171875 C 10.5625 11.507812 10.289062 11.78125 9.953125 11.78125 Z M 8.734375 7.71875 C 8.621094 7.71875 8.53125 7.808594 8.53125 7.921875 L 8.53125 11.171875 C 8.53125 11.285156 8.621094 11.375 8.734375 11.375 L 9.953125 11.375 C 10.066406 11.375 10.15625 11.285156 10.15625 11.171875 L 10.15625 7.921875 C 10.15625 7.808594 10.066406 7.71875 9.953125 7.71875 Z M 8.734375 7.71875 "/>
<path style=" stroke:none;fill-rule:nonzero;fill:rgb(33.333333%,34.117647%,38.039216%);fill-opacity:1;" d="M 7.109375 9.34375 L 5.890625 9.34375 C 5.554688 9.34375 5.28125 9.070312 5.28125 8.734375 L 5.28125 7.921875 C 5.28125 7.585938 5.554688 7.3125 5.890625 7.3125 L 7.109375 7.3125 C 7.445312 7.3125 7.71875 7.585938 7.71875 7.921875 L 7.71875 8.734375 C 7.71875 9.070312 7.445312 9.34375 7.109375 9.34375 Z M 5.890625 7.71875 C 5.777344 7.71875 5.6875 7.808594 5.6875 7.921875 L 5.6875 8.734375 C 5.6875 8.847656 5.777344 8.9375 5.890625 8.9375 L 7.109375 8.9375 C 7.222656 8.9375 7.3125 8.847656 7.3125 8.734375 L 7.3125 7.921875 C 7.3125 7.808594 7.222656 7.71875 7.109375 7.71875 Z M 5.890625 7.71875 "/>
<path style=" stroke:none;fill-rule:nonzero;fill:rgb(33.333333%,34.117647%,38.039216%);fill-opacity:1;" d="M 4.265625 9.34375 L 3.046875 9.34375 C 2.710938 9.34375 2.4375 9.070312 2.4375 8.734375 L 2.4375 7.921875 C 2.4375 7.585938 2.710938 7.3125 3.046875 7.3125 L 4.265625 7.3125 C 4.601562 7.3125 4.875 7.585938 4.875 7.921875 L 4.875 8.734375 C 4.875 9.070312 4.601562 9.34375 4.265625 9.34375 Z M 3.046875 7.71875 C 2.933594 7.71875 2.84375 7.808594 2.84375 7.921875 L 2.84375 8.734375 C 2.84375 8.847656 2.933594 8.9375 3.046875 8.9375 L 4.265625 8.9375 C 4.378906 8.9375 4.46875 8.847656 4.46875 8.734375 L 4.46875 7.921875 C 4.46875 7.808594 4.378906 7.71875 4.265625 7.71875 Z M 3.046875 7.71875 "/>
<path style=" stroke:none;fill-rule:nonzero;fill:rgb(33.333333%,34.117647%,38.039216%);fill-opacity:1;" d="M 7.109375 6.90625 L 5.890625 6.90625 C 5.554688 6.90625 5.28125 6.632812 5.28125 6.296875 L 5.28125 5.484375 C 5.28125 5.148438 5.554688 4.875 5.890625 4.875 L 7.109375 4.875 C 7.445312 4.875 7.71875 5.148438 7.71875 5.484375 L 7.71875 6.296875 C 7.71875 6.632812 7.445312 6.90625 7.109375 6.90625 Z M 5.890625 5.28125 C 5.777344 5.28125 5.6875 5.371094 5.6875 5.484375 L 5.6875 6.296875 C 5.6875 6.410156 5.777344 6.5 5.890625 6.5 L 7.109375 6.5 C 7.222656 6.5 7.3125 6.410156 7.3125 6.296875 L 7.3125 5.484375 C 7.3125 5.371094 7.222656 5.28125 7.109375 5.28125 Z M 5.890625 5.28125 "/>
<path style=" stroke:none;fill-rule:nonzero;fill:rgb(33.333333%,34.117647%,38.039216%);fill-opacity:1;" d="M 4.265625 6.90625 L 3.046875 6.90625 C 2.710938 6.90625 2.4375 6.632812 2.4375 6.296875 L 2.4375 5.484375 C 2.4375 5.148438 2.710938 4.875 3.046875 4.875 L 4.265625 4.875 C 4.601562 4.875 4.875 5.148438 4.875 5.484375 L 4.875 6.296875 C 4.875 6.632812 4.601562 6.90625 4.265625 6.90625 Z M 3.046875 5.28125 C 2.933594 5.28125 2.84375 5.371094 2.84375 5.484375 L 2.84375 6.296875 C 2.84375 6.410156 2.933594 6.5 3.046875 6.5 L 4.265625 6.5 C 4.378906 6.5 4.46875 6.410156 4.46875 6.296875 L 4.46875 5.484375 C 4.46875 5.371094 4.378906 5.28125 4.265625 5.28125 Z M 3.046875 5.28125 "/>
<path style=" stroke:none;fill-rule:nonzero;fill:rgb(33.333333%,34.117647%,38.039216%);fill-opacity:1;" d="M 9.953125 6.90625 L 8.734375 6.90625 C 8.398438 6.90625 8.125 6.632812 8.125 6.296875 L 8.125 5.484375 C 8.125 5.148438 8.398438 4.875 8.734375 4.875 L 9.953125 4.875 C 10.289062 4.875 10.5625 5.148438 10.5625 5.484375 L 10.5625 6.296875 C 10.5625 6.632812 10.289062 6.90625 9.953125 6.90625 Z M 8.734375 5.28125 C 8.621094 5.28125 8.53125 5.371094 8.53125 5.484375 L 8.53125 6.296875 C 8.53125 6.410156 8.621094 6.5 8.734375 6.5 L 9.953125 6.5 C 10.066406 6.5 10.15625 6.410156 10.15625 6.296875 L 10.15625 5.484375 C 10.15625 5.371094 10.066406 5.28125 9.953125 5.28125 Z M 8.734375 5.28125 "/>
<path style=" stroke:none;fill-rule:nonzero;fill:rgb(33.333333%,34.117647%,38.039216%);fill-opacity:1;" d="M 9.953125 4.0625 L 3.046875 4.0625 C 2.710938 4.0625 2.4375 3.789062 2.4375 3.453125 L 2.4375 1.828125 C 2.4375 1.492188 2.710938 1.21875 3.046875 1.21875 L 9.953125 1.21875 C 10.289062 1.21875 10.5625 1.492188 10.5625 1.828125 L 10.5625 3.453125 C 10.5625 3.789062 10.289062 4.0625 9.953125 4.0625 Z M 3.046875 1.625 C 2.933594 1.625 2.84375 1.714844 2.84375 1.828125 L 2.84375 3.453125 C 2.84375 3.566406 2.933594 3.65625 3.046875 3.65625 L 9.953125 3.65625 C 10.066406 3.65625 10.15625 3.566406 10.15625 3.453125 L 10.15625 1.828125 C 10.15625 1.714844 10.066406 1.625 9.953125 1.625 Z M 3.046875 1.625 "/>
<path style=" stroke:none;fill-rule:nonzero;fill:rgb(33.333333%,34.117647%,38.039216%);fill-opacity:1;" d="M 9.34375 3.453125 C 9.007812 3.453125 8.734375 3.179688 8.734375 2.84375 L 8.734375 2.4375 C 8.734375 2.101562 9.007812 1.828125 9.34375 1.828125 C 9.679688 1.828125 9.953125 2.101562 9.953125 2.4375 L 9.953125 2.84375 C 9.953125 3.179688 9.679688 3.453125 9.34375 3.453125 Z M 9.34375 2.234375 C 9.230469 2.234375 9.140625 2.324219 9.140625 2.4375 L 9.140625 2.84375 C 9.140625 2.957031 9.230469 3.046875 9.34375 3.046875 C 9.457031 3.046875 9.546875 2.957031 9.546875 2.84375 L 9.546875 2.4375 C 9.546875 2.324219 9.457031 2.234375 9.34375 2.234375 Z M 9.34375 2.234375 "/>
</g>
</svg>
